<mxfile host="app.diagrams.net" modified="2022-03-05T23:40:41.551Z" agent="5.0 (Windows NT 10.0; Win64; x64) AppleWebKit/537.36 (KHTML, like Gecko) Chrome/98.0.4758.102 Safari/537.36" etag="lyEouEAp6U44lxqaTPgH" version="16.6.6" type="github">
  <diagram id="evsytnb3PgomK00agQq2" name="Page-1">
    <mxGraphModel dx="735" dy="1049" grid="1" gridSize="10" guides="1" tooltips="1" connect="1" arrows="1" fold="1" page="1" pageScale="1" pageWidth="850" pageHeight="1100" math="0" shadow="0">
      <root>
        <mxCell id="0" />
        <mxCell id="1" parent="0" />
        <mxCell id="OOTLHF-vFM3zC698NcgU-1" value="Site User" style="shape=umlActor;verticalLabelPosition=bottom;verticalAlign=top;html=1;outlineConnect=0;" vertex="1" parent="1">
          <mxGeometry x="100" y="430" width="30" height="60" as="geometry" />
        </mxCell>
        <mxCell id="OOTLHF-vFM3zC698NcgU-2" value="View Visualizer" style="ellipse;whiteSpace=wrap;html=1;" vertex="1" parent="1">
          <mxGeometry x="200" y="270" width="120" height="80" as="geometry" />
        </mxCell>
        <mxCell id="OOTLHF-vFM3zC698NcgU-3" value="Randomize&lt;br&gt;Array" style="ellipse;whiteSpace=wrap;html=1;" vertex="1" parent="1">
          <mxGeometry x="200" y="390" width="120" height="80" as="geometry" />
        </mxCell>
        <mxCell id="OOTLHF-vFM3zC698NcgU-4" value="Sort" style="ellipse;whiteSpace=wrap;html=1;" vertex="1" parent="1">
          <mxGeometry x="200" y="630" width="120" height="80" as="geometry" />
        </mxCell>
        <mxCell id="OOTLHF-vFM3zC698NcgU-5" value="Swap Array&lt;br&gt;Cubes" style="ellipse;whiteSpace=wrap;html=1;" vertex="1" parent="1">
          <mxGeometry x="425" y="480" width="120" height="80" as="geometry" />
        </mxCell>
        <mxCell id="OOTLHF-vFM3zC698NcgU-6" value="Reset Array" style="ellipse;whiteSpace=wrap;html=1;" vertex="1" parent="1">
          <mxGeometry x="200" y="520" width="120" height="80" as="geometry" />
        </mxCell>
        <mxCell id="OOTLHF-vFM3zC698NcgU-7" value="" style="endArrow=none;html=1;rounded=0;entryX=-0.014;entryY=0.65;entryDx=0;entryDy=0;entryPerimeter=0;" edge="1" parent="1" target="OOTLHF-vFM3zC698NcgU-2">
          <mxGeometry width="50" height="50" relative="1" as="geometry">
            <mxPoint x="140" y="430" as="sourcePoint" />
            <mxPoint x="180" y="370" as="targetPoint" />
          </mxGeometry>
        </mxCell>
        <mxCell id="OOTLHF-vFM3zC698NcgU-8" value="" style="endArrow=none;html=1;rounded=0;" edge="1" parent="1">
          <mxGeometry width="50" height="50" relative="1" as="geometry">
            <mxPoint x="140" y="430" as="sourcePoint" />
            <mxPoint x="200" y="430" as="targetPoint" />
          </mxGeometry>
        </mxCell>
        <mxCell id="OOTLHF-vFM3zC698NcgU-9" value="" style="endArrow=none;html=1;rounded=0;entryX=0;entryY=0.375;entryDx=0;entryDy=0;entryPerimeter=0;" edge="1" parent="1" target="OOTLHF-vFM3zC698NcgU-6">
          <mxGeometry width="50" height="50" relative="1" as="geometry">
            <mxPoint x="140" y="430" as="sourcePoint" />
            <mxPoint x="400" y="490" as="targetPoint" />
          </mxGeometry>
        </mxCell>
        <mxCell id="OOTLHF-vFM3zC698NcgU-10" value="" style="endArrow=none;html=1;rounded=0;entryX=0;entryY=0.5;entryDx=0;entryDy=0;" edge="1" parent="1" target="OOTLHF-vFM3zC698NcgU-4">
          <mxGeometry width="50" height="50" relative="1" as="geometry">
            <mxPoint x="140" y="430" as="sourcePoint" />
            <mxPoint x="400" y="490" as="targetPoint" />
          </mxGeometry>
        </mxCell>
        <mxCell id="OOTLHF-vFM3zC698NcgU-11" value="" style="endArrow=none;html=1;rounded=0;exitX=1;exitY=0.5;exitDx=0;exitDy=0;entryX=0;entryY=0.5;entryDx=0;entryDy=0;" edge="1" parent="1" source="OOTLHF-vFM3zC698NcgU-4" target="OOTLHF-vFM3zC698NcgU-5">
          <mxGeometry width="50" height="50" relative="1" as="geometry">
            <mxPoint x="350" y="540" as="sourcePoint" />
            <mxPoint x="400" y="490" as="targetPoint" />
          </mxGeometry>
        </mxCell>
      </root>
    </mxGraphModel>
  </diagram>
</mxfile>
